<svg width="170" height="48" viewBox="0 0 170 48" fill="none" xmlns="http://www.w3.org/2000/svg">
<g clip-path="url(#clip0_2846_9431)">
<path d="M48.0925 0H0V48H48.0925V0Z" fill="#7713B3"/>
<path d="M26.7944 15.7711V21.2568H38.4739V26.7424H26.7944V37.7141L17.9058 23.9996L26.7944 10.2852H39.8481V15.7708L26.7944 15.7711ZM11.6796 27.1214V37.7138H18.5446L11.6796 27.1214ZM18.5446 10.2852H11.6796V20.8775L18.5446 10.2852Z" fill="white"/>
<path d="M63.3679 13.6386L67.5815 8.53223H70.5905L66.3439 13.555L70.9582 20.7807H67.7982L64.5215 15.7244L63.3676 17.0933V20.7807H60.6594V8.53223H63.3676V13.6386H63.3679Z" fill="#7713B3"/>
<path d="M79.503 20.7807L75.2564 12.5879V20.7807H72.7484V8.53223H75.9249L80.0046 16.8425V8.53223H82.5126V20.7807H79.503Z" fill="#7713B3"/>
<path d="M89.0879 19.0455H90.3255V20.7807H85.1592V19.0455H86.3959V10.2681H85.1592V8.53223H90.3255V10.2681H89.0879V19.0455Z" fill="#7713B3"/>
<path d="M97.6433 14.5571H102.107V20.9814H100.403L100.135 19.5463C99.4327 20.4478 98.3289 20.9814 97.0586 20.9814C93.9824 20.9814 92.1765 18.8956 92.1765 14.9244C92.1765 10.2518 94.4503 8.31641 97.5767 8.31641C100.269 8.31641 101.823 9.90159 101.84 12.7882L99.1811 12.9884C99.1481 10.9697 98.3623 10.4525 97.3927 10.4525C96.0887 10.4525 95.0351 11.4697 95.0351 14.8072C95.0351 17.811 96.0215 18.8626 97.4929 18.8626C98.6294 18.8626 99.6665 18.1448 99.7332 16.5095H97.6433V14.5571Z" fill="#7713B3"/>
<path d="M114.531 20.7807H111.806V15.808H107.626V20.7807H104.918V8.53223H107.626V13.5886H111.806V8.53223H114.531V20.7807Z" fill="#7713B3"/>
<path d="M119.781 10.7181H116.538V8.53223H125.751V10.7181H122.507V20.7807H119.781V10.7181Z" fill="#7713B3"/>
<path d="M67.3137 35.9335H63.3679V40.8061H60.6597V28.5576H67.8987V30.7435H63.3682V33.8138H67.314V35.9335H67.3137Z" fill="#7713B3"/>
<path d="M69.6136 34.7325C69.6136 30.6616 71.72 28.3418 75.0474 28.3418C78.4581 28.3418 80.1126 30.6107 80.1126 34.5324C80.1126 38.6543 78.3077 41.0068 74.7962 41.0068C71.2847 41.0068 69.6136 38.7208 69.6136 34.7325ZM77.2706 34.5825C77.2706 31.7458 76.5354 30.5106 74.9637 30.5106C73.4421 30.5106 72.4557 31.7285 72.4557 34.649C72.4557 37.553 73.208 38.888 74.88 38.888C76.5018 38.888 77.2706 37.6192 77.2706 34.5825Z" fill="#7713B3"/>
<path d="M89.1747 28.5576H91.8501V36.417C91.8501 39.3372 90.2784 41.006 86.9516 41.006C83.4236 41.006 82.2034 39.2371 82.2034 36.3169V28.5576H84.8617V35.5997C84.8617 37.7355 85.2796 38.8536 87.0347 38.8536C88.7898 38.8536 89.1747 37.8191 89.1747 35.6162V28.5576Z" fill="#7713B3"/>
<path d="M101.515 40.8061L97.2683 32.6133V40.8061H94.7604V28.5576H97.9368L102.017 36.8679V28.5576H104.525V40.8061H101.515Z" fill="#7713B3"/>
<path d="M107.501 40.8061V28.5576H110.51C115.158 28.5576 116.947 30.5937 116.947 34.4319C116.947 38.6865 115.158 40.8061 110.477 40.8061H107.501ZM110.861 38.6038C113.018 38.6038 114.155 37.6022 114.155 34.5984C114.155 31.7118 113.118 30.7438 110.861 30.7438H110.209V38.6041H110.861V38.6038Z" fill="#7713B3"/>
<path d="M125.174 28.5576L129.304 40.8061H126.528L125.592 37.9857H121.345L120.442 40.8061H117.75L121.796 28.5576H125.173H125.174ZM123.452 31.0443H123.418L121.914 35.917H125.006L123.452 31.0443Z" fill="#7713B3"/>
<path d="M132.564 30.7445H129.321V28.5586H138.533V30.7445H135.289V40.8071H132.564V30.7445Z" fill="#7713B3"/>
<path d="M144.535 39.0718H145.773V40.8071H140.607V39.0718H141.843V30.2945H140.607V28.5586H145.773V30.2945H144.535V39.0718Z" fill="#7713B3"/>
<path d="M147.662 34.7325C147.662 30.6616 149.769 28.3418 153.096 28.3418C156.507 28.3418 158.161 30.6107 158.161 34.5324C158.161 38.6543 156.356 41.0068 152.845 41.0068C149.333 41.0068 147.662 38.7208 147.662 34.7325ZM155.319 34.5825C155.319 31.7458 154.584 30.5106 153.012 30.5106C151.491 30.5106 150.504 31.7285 150.504 34.649C150.504 37.553 151.257 38.888 152.929 38.888C154.551 38.888 155.319 37.6192 155.319 34.5825Z" fill="#7713B3"/>
<path d="M166.99 40.8061L162.744 32.6133V40.8061H160.236V28.5576H163.412L167.492 36.8679V28.5576H170V40.8061H166.99Z" fill="#7713B3"/>
</g>
<defs>
<clipPath id="clip0_2846_9431">
<rect width="170" height="48" fill="white"/>
</clipPath>
</defs>
</svg>
