<svg width="200" height="200" viewBox="0 0 200 200" fill="none" xmlns="http://www.w3.org/2000/svg">
<g clip-path="url(#clip0_1831_575)">
<circle cx="100" cy="100" r="60" fill="#6C2CAA" fill-opacity="0.1"/>
<path d="M120 130C125.523 130 130 125.523 130 120C130 114.477 125.523 110 120 110C114.477 110 110 114.477 110 120C110 125.523 114.477 130 120 130Z" fill="white" stroke="#6421A6" stroke-width="3.33333" stroke-linecap="round" stroke-linejoin="round"/>
<path d="M80 90C85.5228 90 90 85.5228 90 80C90 74.4772 85.5228 70 80 70C74.4772 70 70 74.4772 70 80C70 85.5228 74.4772 90 80 90Z" fill="white" stroke="#6421A6" stroke-width="3.33333" stroke-linecap="round" stroke-linejoin="round"/>
<path d="M103.333 80H113.333C115.101 80 116.797 80.7024 118.047 81.9526C119.298 83.2029 120 84.8986 120 86.6667V110" stroke="#6421A6" stroke-width="3.33333" stroke-linecap="round" stroke-linejoin="round"/>
<path d="M80 90V130" stroke="#6421A6" stroke-width="3.33333" stroke-linecap="round" stroke-linejoin="round"/>
</g>
<defs>
<clipPath id="clip0_1831_575">
<rect width="120" height="120" fill="white" transform="translate(40 40)"/>
</clipPath>
</defs>
</svg>
