<svg width="200" height="200" viewBox="0 0 200 200" fill="none" xmlns="http://www.w3.org/2000/svg">
<g clip-path="url(#clip0_1831_585)">
<circle cx="100" cy="100" r="60" fill="#6C2CAA" fill-opacity="0.1"/>
<path d="M114.142 89.1912C106.331 81.3808 93.6682 81.3808 85.8577 89.1912C78.0472 97.0017 78.0472 109.665 85.8577 117.476C93.6682 125.286 106.331 125.286 114.142 117.476C121.952 109.665 121.952 97.0017 114.142 89.1912Z" fill="white" stroke="#6421A6" stroke-width="3.33333" stroke-linecap="round" stroke-linejoin="round"/>
<path d="M109.428 93.9052C104.221 88.6983 95.7788 88.6983 90.5718 93.9052C85.3648 99.1122 85.3648 107.554 90.5718 112.761C95.7788 117.968 104.221 117.968 109.428 112.761C114.635 107.554 114.635 99.1122 109.428 93.9052Z" fill="white" stroke="#6421A6" stroke-width="3.33333" stroke-linecap="round" stroke-linejoin="round"/>
<path d="M104.714 98.6192C102.11 96.0158 97.8893 96.0158 95.2858 98.6192C92.6823 101.223 92.6823 105.444 95.2858 108.047C97.8893 110.651 102.11 110.651 104.714 108.047C107.317 105.444 107.317 101.223 104.714 98.6192Z" fill="white" stroke="#6421A6" stroke-width="3.33333" stroke-linecap="round" stroke-linejoin="round"/>
<path d="M99.9998 68.1801V123.333" stroke="#6421A6" stroke-width="3.33333" stroke-linecap="round" stroke-linejoin="round"/>
<path d="M106.667 71.5135C106.667 71.5135 101.667 74.9999 99.9998 83.5597" stroke="#6421A6" stroke-width="3.33333" stroke-linecap="round" stroke-linejoin="round"/>
<path d="M110 78.1801C110 78.1801 103.333 78.1801 100 83.5597" stroke="#6421A6" stroke-width="3.33333" stroke-linecap="round" stroke-linejoin="round"/>
<path d="M101.667 86.6666V86.6666C110.871 86.6666 118.333 94.1285 118.333 103.333V103.333C118.333 112.538 110.871 120 101.667 120V120V86.6666Z" fill="white"/>
</g>
<defs>
<clipPath id="clip0_1831_585">
<rect width="120" height="120" fill="white" transform="translate(40 40)"/>
</clipPath>
</defs>
</svg>
