<svg width="200" height="200" viewBox="0 0 200 200" fill="none" xmlns="http://www.w3.org/2000/svg">
<g clip-path="url(#clip0_1831_585)">
<circle cx="100" cy="100" r="60" fill="#F0EAF6"/>
<path d="M114.142 89.1912C106.331 81.3808 93.6682 81.3808 85.8577 89.1912C78.0472 97.0017 78.0472 109.665 85.8577 117.476C93.6682 125.286 106.331 125.286 114.142 117.476C121.952 109.665 121.952 97.0017 114.142 89.1912Z" fill="white" stroke="#6421A6" stroke-width="3" stroke-linecap="round" stroke-linejoin="round"/>
<path d="M99.9998 68.1801V123.333" stroke="#6421A6" stroke-width="3" stroke-linecap="round" stroke-linejoin="round"/>
<path d="M106.667 71.5135C106.667 71.5135 101.667 74.9999 99.9998 83.5597" stroke="#6421A6" stroke-width="3" stroke-linecap="round" stroke-linejoin="round"/>
<path d="M110 78.1801C110 78.1801 103.333 78.1801 100 83.5597" stroke="#6421A6" stroke-width="3" stroke-linecap="round" stroke-linejoin="round"/>
<path fill-rule="evenodd" clip-rule="evenodd" d="M101.5 88.5756C97.2208 88.1431 92.7895 89.5661 89.5111 92.8446C83.7183 98.6374 83.7183 108.029 89.5111 113.822C92.7895 117.101 97.2208 118.524 101.5 118.091V115.072C97.9934 115.517 94.3254 114.394 91.6324 111.701C87.0112 107.08 87.0112 99.5871 91.6324 94.9659C94.3254 92.2729 97.9934 91.1493 101.5 91.5949V88.5756ZM101.5 95.3048C98.9431 94.8294 96.2031 95.5806 94.2251 97.5586C91.0359 100.748 91.0359 105.919 94.2251 109.108C96.2031 111.086 98.9431 111.837 101.5 111.362V108.278C99.7353 108.812 97.7413 108.381 96.3465 106.987C94.3288 104.969 94.3288 101.698 96.3465 99.6799C97.7413 98.285 99.7353 97.8545 101.5 98.3881V95.3048Z" fill="#6421A6"/>
</g>
<defs>
<clipPath id="clip0_1831_585">
<rect width="120" height="120" fill="white" transform="translate(40 40)"/>
</clipPath>
</defs>
</svg>
